<?xml version="1.0" encoding="UTF-8" standalone="no"?>
<!-- Created with Inkscape (http://www.inkscape.org/) -->

<svg
   width="64"
   height="64"
   viewBox="0 0 16.933333 16.933333"
   version="1.1"
   id="svg5"
   inkscape:version="1.2.2 (732a01da63, 2022-12-09)"
   sodipodi:docname="connection_status_connected.svg"
   xmlns:inkscape="http://www.inkscape.org/namespaces/inkscape"
   xmlns:sodipodi="http://sodipodi.sourceforge.net/DTD/sodipodi-0.dtd"
   xmlns="http://www.w3.org/2000/svg"
   xmlns:svg="http://www.w3.org/2000/svg">
  <sodipodi:namedview
     id="namedview7"
     pagecolor="#505050"
     bordercolor="#ffffff"
     borderopacity="1"
     inkscape:showpageshadow="0"
     inkscape:pageopacity="0"
     inkscape:pagecheckerboard="1"
     inkscape:deskcolor="#505050"
     inkscape:document-units="mm"
     showgrid="false"
     inkscape:zoom="8.8391523"
     inkscape:cx="22.683171"
     inkscape:cy="32.525743"
     inkscape:window-width="1920"
     inkscape:window-height="1058"
     inkscape:window-x="-8"
     inkscape:window-y="-8"
     inkscape:window-maximized="1"
     inkscape:current-layer="layer1" />
  <defs
     id="defs2" />
  <g
     inkscape:label="Calque 1"
     inkscape:groupmode="layer"
     id="layer1">
    <path
       style="fill:#000000;fill-opacity:0;stroke:#00ff00;stroke-width:1.61308;stroke-opacity:1"
       id="path236"
       sodipodi:type="arc"
       sodipodi:cx="-8.3003025"
       sodipodi:cy="-11.952727"
       sodipodi:rx="9.4942722"
       sodipodi:ry="10.669991"
       sodipodi:start="0.74229008"
       sodipodi:end="2.4140673"
       sodipodi:arc-type="slice"
       d="m -1.3037601,-4.740056 a 9.4942722,10.669991 0 0 1 -7.0666319,3.4570285 9.4942722,10.669991 0 0 1 -7.020446,-3.5739048 l 7.0905355,-7.0957947 z"
       transform="matrix(-0.99996146,0.00877973,-0.00713193,-0.99997457,0,0)" />
    <path
       style="fill:#00ff00;fill-opacity:1;stroke:#00ff00;stroke-width:0.396726;stroke-opacity:1"
       id="path1164"
       sodipodi:type="arc"
       sodipodi:cx="8.3956604"
       sodipodi:cy="14.941568"
       sodipodi:rx="1.3908851"
       sodipodi:ry="1.4625386"
       sodipodi:start="0.74229008"
       sodipodi:end="0.73621061"
       sodipodi:arc-type="arc"
       d="m 9.4206349,15.930211 a 1.3908851,1.4625386 0 0 1 -1.9636223,0.09064 1.3908851,1.4625386 0 0 1 -0.08918,-2.064641 1.3908851,1.4625386 0 0 1 1.9633512,-0.09691 1.3908851,1.4625386 0 0 1 0.095148,2.064347"
       sodipodi:open="true" />
    <path
       style="fill:none;stroke:#00ff00;stroke-width:0.401122px;stroke-linecap:butt;stroke-linejoin:miter;stroke-opacity:1"
       d="m 11.363802,14.010884 1.697953,1.255835 2.374637,-3.832494"
       id="path530" />
    <path
       style="fill:none;fill-opacity:0;stroke:#00ff00;stroke-width:0.533168;stroke-linecap:round;stroke-linejoin:bevel;stroke-dasharray:none;stroke-opacity:1"
       id="path343"
       sodipodi:type="arc"
       sodipodi:cx="12.143917"
       sodipodi:cy="-14.531978"
       sodipodi:rx="2.7222471"
       sodipodi:ry="2.7365506"
       sodipodi:start="1.4596623"
       sodipodi:end="1.4442286"
       sodipodi:open="true"
       sodipodi:arc-type="arc"
       d="m 12.445829,-11.812309 a 2.7222471,2.7365506 0 0 1 -3.0061804,-2.405679 2.7222471,2.7365506 0 0 1 2.3814884,-3.031235 2.7222471,2.7365506 0 0 1 3.024558,2.382287 2.7222471,2.7365506 0 0 1 -2.358148,3.049619"
       transform="matrix(-0.08691459,0.99621577,-0.99645663,-0.08410815,0,0)" />
  </g>
</svg>
